<mxfile host="app.diagrams.net" agent="Mozilla/5.0 (Windows NT 10.0; Win64; x64) AppleWebKit/537.36 (KHTML, like Gecko) Chrome/134.0.0.0 Safari/537.36" version="26.1.3">
  <diagram name="Страница — 1" id="Ok5Bn-1lbR-pCIy0CCDY">
    <mxGraphModel dx="712" dy="779" grid="1" gridSize="10" guides="1" tooltips="1" connect="1" arrows="1" fold="1" page="1" pageScale="1" pageWidth="827" pageHeight="1169" math="0" shadow="0">
      <root>
        <mxCell id="0" />
        <mxCell id="1" parent="0" />
        <mxCell id="Oq-IRSgVpLiWnXnwIzll-1" value="" style="ellipse;html=1;shape=endState;fillColor=#000000;strokeColor=#ff0000;" vertex="1" parent="1">
          <mxGeometry x="259" y="420" width="30" height="30" as="geometry" />
        </mxCell>
        <mxCell id="Oq-IRSgVpLiWnXnwIzll-7" value="Данные верны" style="rhombus;whiteSpace=wrap;html=1;fontColor=#000000;fillColor=#ffffc0;strokeColor=#ff0000;" vertex="1" parent="1">
          <mxGeometry x="234" y="320" width="80" height="40" as="geometry" />
        </mxCell>
        <mxCell id="Oq-IRSgVpLiWnXnwIzll-8" value="no" style="edgeStyle=orthogonalEdgeStyle;html=1;align=left;verticalAlign=bottom;endArrow=open;endSize=8;strokeColor=#ff0000;rounded=0;" edge="1" parent="1">
          <mxGeometry x="-1" relative="1" as="geometry">
            <mxPoint x="334" y="130" as="targetPoint" />
            <mxPoint x="314" y="350" as="sourcePoint" />
            <Array as="points">
              <mxPoint x="540" y="350" />
              <mxPoint x="540" y="130" />
            </Array>
          </mxGeometry>
        </mxCell>
        <mxCell id="Oq-IRSgVpLiWnXnwIzll-9" value="yes" style="edgeStyle=orthogonalEdgeStyle;html=1;align=left;verticalAlign=top;endArrow=open;endSize=8;strokeColor=#ff0000;rounded=0;" edge="1" source="Oq-IRSgVpLiWnXnwIzll-7" parent="1">
          <mxGeometry x="-1" relative="1" as="geometry">
            <mxPoint x="274" y="420" as="targetPoint" />
          </mxGeometry>
        </mxCell>
        <mxCell id="Oq-IRSgVpLiWnXnwIzll-10" value="Проверить данные" style="rounded=1;whiteSpace=wrap;html=1;arcSize=40;fontColor=#000000;fillColor=#ffffc0;strokeColor=#ff0000;" vertex="1" parent="1">
          <mxGeometry x="214" y="220" width="120" height="40" as="geometry" />
        </mxCell>
        <mxCell id="Oq-IRSgVpLiWnXnwIzll-11" value="" style="edgeStyle=orthogonalEdgeStyle;html=1;verticalAlign=bottom;endArrow=open;endSize=8;strokeColor=#ff0000;rounded=0;curved=1;" edge="1" source="Oq-IRSgVpLiWnXnwIzll-10" parent="1">
          <mxGeometry relative="1" as="geometry">
            <mxPoint x="274" y="320" as="targetPoint" />
          </mxGeometry>
        </mxCell>
        <mxCell id="Oq-IRSgVpLiWnXnwIzll-15" value="Ввести логин /пароль" style="rounded=1;whiteSpace=wrap;html=1;arcSize=40;fontColor=#000000;fillColor=#ffffc0;strokeColor=#ff0000;" vertex="1" parent="1">
          <mxGeometry x="214" y="120" width="120" height="40" as="geometry" />
        </mxCell>
        <mxCell id="Oq-IRSgVpLiWnXnwIzll-16" value="" style="edgeStyle=orthogonalEdgeStyle;html=1;verticalAlign=bottom;endArrow=open;endSize=8;strokeColor=#ff0000;rounded=0;curved=1;" edge="1" source="Oq-IRSgVpLiWnXnwIzll-15" parent="1">
          <mxGeometry relative="1" as="geometry">
            <mxPoint x="274" y="220" as="targetPoint" />
          </mxGeometry>
        </mxCell>
        <mxCell id="Oq-IRSgVpLiWnXnwIzll-18" value="" style="ellipse;html=1;shape=startState;fillColor=#000000;strokeColor=#ff0000;" vertex="1" parent="1">
          <mxGeometry x="259" y="30" width="30" height="30" as="geometry" />
        </mxCell>
        <mxCell id="Oq-IRSgVpLiWnXnwIzll-19" value="" style="edgeStyle=orthogonalEdgeStyle;html=1;verticalAlign=bottom;endArrow=open;endSize=8;strokeColor=#ff0000;rounded=0;curved=1;" edge="1" source="Oq-IRSgVpLiWnXnwIzll-18" parent="1">
          <mxGeometry relative="1" as="geometry">
            <mxPoint x="274" y="120" as="targetPoint" />
          </mxGeometry>
        </mxCell>
        <mxCell id="Oq-IRSgVpLiWnXnwIzll-21" value="" style="ellipse;html=1;shape=endState;fillColor=#000000;strokeColor=#ff0000;" vertex="1" parent="1">
          <mxGeometry x="660" y="430" width="30" height="30" as="geometry" />
        </mxCell>
        <mxCell id="Oq-IRSgVpLiWnXnwIzll-22" value="Сохранить" style="rounded=1;whiteSpace=wrap;html=1;arcSize=40;fontColor=#000000;fillColor=#ffffc0;strokeColor=#ff0000;" vertex="1" parent="1">
          <mxGeometry x="615" y="340" width="120" height="40" as="geometry" />
        </mxCell>
        <mxCell id="Oq-IRSgVpLiWnXnwIzll-23" value="" style="edgeStyle=orthogonalEdgeStyle;html=1;verticalAlign=bottom;endArrow=open;endSize=8;strokeColor=#ff0000;rounded=0;curved=1;" edge="1" source="Oq-IRSgVpLiWnXnwIzll-22" parent="1">
          <mxGeometry relative="1" as="geometry">
            <mxPoint x="675" y="440" as="targetPoint" />
          </mxGeometry>
        </mxCell>
        <mxCell id="Oq-IRSgVpLiWnXnwIzll-34" value="" style="edgeStyle=orthogonalEdgeStyle;curved=1;rounded=0;orthogonalLoop=1;jettySize=auto;html=1;" edge="1" parent="1" source="Oq-IRSgVpLiWnXnwIzll-24" target="Oq-IRSgVpLiWnXnwIzll-30">
          <mxGeometry relative="1" as="geometry" />
        </mxCell>
        <mxCell id="Oq-IRSgVpLiWnXnwIzll-24" value="Проверить" style="rounded=1;whiteSpace=wrap;html=1;arcSize=40;fontColor=#000000;fillColor=#ffffc0;strokeColor=#ff0000;" vertex="1" parent="1">
          <mxGeometry x="615" y="240" width="120" height="40" as="geometry" />
        </mxCell>
        <mxCell id="Oq-IRSgVpLiWnXnwIzll-25" value="" style="edgeStyle=orthogonalEdgeStyle;html=1;verticalAlign=bottom;endArrow=open;endSize=8;strokeColor=#ff0000;rounded=0;curved=1;" edge="1" source="Oq-IRSgVpLiWnXnwIzll-24" parent="1">
          <mxGeometry relative="1" as="geometry">
            <mxPoint x="675" y="340" as="targetPoint" />
          </mxGeometry>
        </mxCell>
        <mxCell id="Oq-IRSgVpLiWnXnwIzll-26" value="Заполнить форму" style="rounded=1;whiteSpace=wrap;html=1;arcSize=40;fontColor=#000000;fillColor=#ffffc0;strokeColor=#ff0000;" vertex="1" parent="1">
          <mxGeometry x="615" y="150" width="120" height="40" as="geometry" />
        </mxCell>
        <mxCell id="Oq-IRSgVpLiWnXnwIzll-27" value="" style="edgeStyle=orthogonalEdgeStyle;html=1;verticalAlign=bottom;endArrow=open;endSize=8;strokeColor=#ff0000;rounded=0;curved=1;" edge="1" source="Oq-IRSgVpLiWnXnwIzll-26" parent="1">
          <mxGeometry relative="1" as="geometry">
            <mxPoint x="675" y="250" as="targetPoint" />
          </mxGeometry>
        </mxCell>
        <mxCell id="Oq-IRSgVpLiWnXnwIzll-28" value="" style="ellipse;html=1;shape=startState;fillColor=#000000;strokeColor=#ff0000;" vertex="1" parent="1">
          <mxGeometry x="660" y="60" width="30" height="30" as="geometry" />
        </mxCell>
        <mxCell id="Oq-IRSgVpLiWnXnwIzll-29" value="" style="edgeStyle=orthogonalEdgeStyle;html=1;verticalAlign=bottom;endArrow=open;endSize=8;strokeColor=#ff0000;rounded=0;curved=1;" edge="1" source="Oq-IRSgVpLiWnXnwIzll-28" parent="1">
          <mxGeometry relative="1" as="geometry">
            <mxPoint x="675" y="150" as="targetPoint" />
          </mxGeometry>
        </mxCell>
        <mxCell id="Oq-IRSgVpLiWnXnwIzll-30" value="Ошибка" style="rounded=1;whiteSpace=wrap;html=1;arcSize=40;fontColor=#000000;fillColor=#ffffc0;strokeColor=#ff0000;" vertex="1" parent="1">
          <mxGeometry x="827" y="200" width="120" height="40" as="geometry" />
        </mxCell>
        <mxCell id="Oq-IRSgVpLiWnXnwIzll-31" value="" style="edgeStyle=orthogonalEdgeStyle;html=1;verticalAlign=bottom;endArrow=open;endSize=8;strokeColor=#ff0000;rounded=0;curved=1;" edge="1" source="Oq-IRSgVpLiWnXnwIzll-30" parent="1" target="Oq-IRSgVpLiWnXnwIzll-26">
          <mxGeometry relative="1" as="geometry">
            <mxPoint x="860" y="340" as="targetPoint" />
            <Array as="points">
              <mxPoint x="861" y="170" />
            </Array>
          </mxGeometry>
        </mxCell>
      </root>
    </mxGraphModel>
  </diagram>
</mxfile>
